#!OML:ASF F:\VICON\USERDATA\Patient Classification 1\PLAYGROUND\JustinFriday\JustinFriday.ASF
:FULLY-SPECIFIED
:DEGREES
1891
root 27.2611 17.9163 31.0169 -186.986 -42.2969 -167.54
lowerback 13.0837 4.35616 8.4285
upperback 2.52606 6.72718 6.08828
thorax -4.3896 3.0051 0.624588
lowerneck -7.3552 8.26704 0.0427896
upperneck 1.83619 11.2101 -5.48512
head 2.18064 5.41109 -1.26666
rclavicle -7.41467e-014 -1.11319e-014
rhumerus -20.0519 -22.4687 -51.3713
rradius 19.5458
rwrist 0.632594
rhand -19.1732 -43.1475
rfingers 7.12502
rthumb 7.13801 -73.0071
lclavicle -7.41467e-014 -1.11319e-014
lhumerus -35.382 -0.826196 88.0802
lradius 40.8745
lwrist 5.25601
lhand -20.2341 -9.86762
lfingers 7.12502
lthumb 6.11384 20.0242
rfemur -6.38647 -2.09755 25.2776
rtibia 31.0697
rfoot -16.3809 -23.0949
rtoes 7.39733
lfemur -29.7955 9.74408 -9.6454
ltibia 49.458
lfoot -9.73991 -7.18711
ltoes 3.02554
1892
root 27.2107 17.9129 30.9157 -187.152 -43.3952 -167.519
lowerback 13.3308 3.80453 8.5335
upperback 2.49737 6.04608 5.96265
thorax -4.56018 2.66451 0.520262
lowerneck -7.0256 8.48763 -0.460948
upperneck 1.15637 11.4898 -5.27041
head 1.85561 5.57256 -1.13557
rclavicle -2.0276e-014 -1.59028e-015
rhumerus -18.8291 -23.5171 -51.5981
rradius 19.4461
rwrist 5.35258
rhand -20.9353 -28.8958
rfingers 7.12502
rthumb 5.43682 -58.8061
lclavicle -2.0276e-014 -1.59028e-015
lhumerus -35.7693 0.849528 86.9754
lradius 40.7566
lwrist 5.23257
lhand -20.0273 -9.84746
lfingers 7.12502
lthumb 6.31343 20.0385
rfemur -5.64803 -2.07493 25.3785
rtibia 30.8824
rfoot -17.1963 -23.8625
rtoes 6.82275
lfemur -29.9844 10.6366 -10.4664
ltibia 47.5923
lfoot -9.7727 -7.06698
ltoes 2.12422
1893
root 27.1469 17.9177 30.8375 -187.053 -43.9806 -167.392
lowerback 12.9498 3.82676 8.79526
upperback 2.45364 6.072 5.89229
thorax -4.35974 2.68509 0.325166
lowerneck -6.82827 8.54412 -0.394301
upperneck 1.44462 11.5774 -5.25917
head 1.92126 5.61625 -1.14094
rclavicle 2.90226e-014 -6.83819e-014
rhumerus -18.454 -21.6121 -52.1973
rradius 19.5295
rwrist 0.920543
rhand -23.5626 -27.4879
rfingers 7.12502
rthumb 2.89982 -57.448
lclavicle 2.90226e-014 -6.83819e-014
lhumerus -36.0229 1.48719 86.432
lradius 40.5017
lwrist 5.09938
lhand -20.1879 -9.51246
lfingers 7.12502
lthumb 6.15842 20.378
rfemur -5.41434 -2.14125 25.438
rtibia 30.6911
rfoot -17.5415 -24.119
rtoes 8.96712
lfemur -30.4648 11.541 -11.3118
ltibia 45.7016
lfoot -9.71948 -6.34737
ltoes 1.30562
1894
root 27.0844 17.9081 30.7623 -187.15 -44.5787 -167.049
lowerback 12.7655 4.05399 8.96263
upperback 2.37434 6.38488 5.95257
thorax -4.31483 2.83822 0.262906
lowerneck -6.76473 8.40881 -0.108992
upperneck 1.56069 11.3884 -5.43058
head 1.97487 5.51906 -1.24829
rclavicle 9.20373e-014 7.4743e-014
rhumerus -18.4904 -21.2877 -51.8577
rradius 19.8929
rwrist 0.0343879
rhand -23.9124 -27.8469
rfingers 7.12502
rthumb 2.56192 -57.8113
lclavicle 9.20373e-014 7.4743e-014
lhumerus -36.1205 1.70178 86.2336
lradius 40.0801
lwrist 4.95914
lhand -20.791 -9.09928
lfingers 7.12502
lthumb 5.57614 20.8074
rfemur -5.1001 -2.33557 25.6895
rtibia 30.4863
rfoot -17.6718 -24.4791
rtoes 8.49196
lfemur -30.9294 12.3804 -11.9854
ltibia 43.8164
lfoot -9.55802 -5.60772
ltoes 0.20625
1895
root 27.0208 17.8999 30.6949 -186.784 -45.0894 -166.995
lowerback 12.5569 4.38086 8.89044
upperback 2.23378 6.8114 5.95741
thorax -4.33677 3.05229 0.255819
lowerneck -7.06307 8.21173 0.258001
upperneck 1.78197 11.1228 -5.68342
head 2.13624 5.37224 -1.38159
rclavicle -6.99722e-014 -7.63333e-014
rhumerus -18.4477 -21.0169 -51.5256
rradius 20.2082
rwrist -0.937558
rhand -21.9279 -66.7323
rfingers 7.12502
rthumb 4.47842 96.665
lclavicle -6.99722e-014 -7.63333e-014
lhumerus -36.0849 2.03194 86.1004
lradius 39.5832
lwrist 4.69351
lhand -20.8288 -9.37686
lfingers 7.12502
lthumb 5.53967 20.5307
rfemur -5.13281 -2.8255 25.6459
rtibia 30.3322
rfoot -17.6299 -24.5314
rtoes 8.4994
lfemur -31.6802 13.342 -12.9982
ltibia 41.9672
lfoot -9.26021 -4.6762
ltoes -1.13995
1896
root 26.9543 17.895 30.6238 -186.342 -45.6958 -167.29
lowerback 12.289 4.52978 8.76051
upperback 2.18512 6.97629 5.85611
thorax -4.23563 3.14739 0.215487
lowerneck -6.60545 8.12124 0.538588
upperneck 1.43285 10.9682 -6.05537
head 1.97922 5.30357 -1.57804
rclavicle -2.3059e-014 9.54166e-015
rhumerus -18.1428 -20.6441 -51.4995
rradius 20.6454
rwrist -1.43036
rhand -21.6153 -72.0922
rfingers 7.12502
rthumb 4.78023 102.018
lclavicle -2.3059e-014 9.54166e-015
lhumerus -36.2633 2.6173 85.7648
lradius 39.2408
lwrist 4.70404
lhand -20.4821 -9.77403
lfingers 7.12502
lthumb 5.87442 20.1245
rfemur -4.97321 -3.35789 25.3126
rtibia 30.2035
rfoot -17.449 -24.741
rtoes 7.91328
lfemur -32.2141 14.3001 -14.3416
ltibia 40.1961
lfoot -8.91265 -3.76925
ltoes -1.24501
